<svg height="576" viewBox="0 0 576 432" width="768" xmlns="http://www.w3.org/2000/svg" xmlns:xlink="http://www.w3.org/1999/xlink"><defs><style>*{stroke-linecap:butt;stroke-linejoin:round;stroke-miterlimit:100000}</style></defs><g id="figure_1"><path d="M0 432h576V0H0z" fill="#fff" id="patch_1"/><g id="axes_1"><path d="M72 388.8h446.4V43.2H72z" fill="#fff" id="patch_2"/><path clip-path="url(#p2b4a467be3)" d="M90.6 374.458h37.2v-32.314H90.6v32.314" fill="none" stroke="#00f" stroke-linecap="square" id="line2d_1"/><path clip-path="url(#p2b4a467be3)" d="M109.2 374.458v14.054" fill="none" stroke="#00f" stroke-dasharray="6,6" id="line2d_2"/><path clip-path="url(#p2b4a467be3)" d="M109.2 342.144V327.11" fill="none" stroke="#00f" stroke-dasharray="6,6" id="line2d_3"/><path clip-path="url(#p2b4a467be3)" d="M99.9 388.512h18.6" fill="none" stroke="#000" stroke-linecap="square" id="line2d_4"/><path clip-path="url(#p2b4a467be3)" d="M99.9 327.11h18.6" fill="none" stroke="#000" stroke-linecap="square" id="line2d_5"/><path clip-path="url(#p2b4a467be3)" d="M90.6 351.648h37.2" fill="none" stroke="red" stroke-linecap="square" id="line2d_6"/><g id="line2d_7"><defs><path d="M-3 3h6v-6h-6z" id="mdff2d83161" stroke="#000" stroke-width=".5"/></defs><g clip-path="url(#p2b4a467be3)"><use x="109.2" xlink:href="#mdff2d83161" y="325.607" fill="red" stroke="#000" stroke-width=".5"/></g></g><g id="line2d_8"><defs><path d="M-3 0h6M0 3v-6" id="m4ef53f7024" stroke="#000" stroke-width=".5"/></defs><g clip-path="url(#p2b4a467be3)" fill="#00f" stroke="#000" stroke-width=".5"><use x="109.2" xlink:href="#m4ef53f7024" y="197.05"/><use x="109.2" xlink:href="#m4ef53f7024" y="134.323"/><use x="109.2" xlink:href="#m4ef53f7024" y="92.678"/><use x="109.2" xlink:href="#m4ef53f7024" y="119.923"/><use x="109.2" xlink:href="#m4ef53f7024" y="225.504"/><use x="109.2" xlink:href="#m4ef53f7024" y="187.603"/><use x="109.2" xlink:href="#m4ef53f7024" y="126.95"/><use x="109.2" xlink:href="#m4ef53f7024" y="99.418"/><use x="109.2" xlink:href="#m4ef53f7024" y="138.125"/><use x="109.2" xlink:href="#m4ef53f7024" y="231.667"/><use x="109.2" xlink:href="#m4ef53f7024" y="195.84"/><use x="109.2" xlink:href="#m4ef53f7024" y="144.806"/><use x="109.2" xlink:href="#m4ef53f7024" y="99.878"/><use x="109.2" xlink:href="#m4ef53f7024" y="122.918"/><use x="109.2" xlink:href="#m4ef53f7024" y="230.861"/><use x="109.2" xlink:href="#m4ef53f7024" y="192.326"/><use x="109.2" xlink:href="#m4ef53f7024" y="131.386"/><use x="109.2" xlink:href="#m4ef53f7024" y="90.893"/><use x="109.2" xlink:href="#m4ef53f7024" y="122.515"/><use x="109.2" xlink:href="#m4ef53f7024" y="230.976"/><use x="109.2" xlink:href="#m4ef53f7024" y="177.638"/><use x="109.2" xlink:href="#m4ef53f7024" y="132.422"/><use x="109.2" xlink:href="#m4ef53f7024" y="101.549"/><use x="109.2" xlink:href="#m4ef53f7024" y="113.414"/><use x="109.2" xlink:href="#m4ef53f7024" y="232.301"/></g></g><path clip-path="url(#p2b4a467be3)" d="M165 383.847h37.2v-5.696H165v5.696" fill="none" stroke="#00f" stroke-linecap="square" id="line2d_9"/><path clip-path="url(#p2b4a467be3)" d="M183.6 383.847v4.514" fill="none" stroke="#00f" stroke-dasharray="6,6" id="line2d_10"/><path clip-path="url(#p2b4a467be3)" d="M183.6 378.151v-7.366" fill="none" stroke="#00f" stroke-dasharray="6,6" id="line2d_11"/><path clip-path="url(#p2b4a467be3)" d="M174.3 388.361h18.6" fill="none" stroke="#000" stroke-linecap="square" id="line2d_12"/><path clip-path="url(#p2b4a467be3)" d="M174.3 370.785h18.6" fill="none" stroke="#000" stroke-linecap="square" id="line2d_13"/><path clip-path="url(#p2b4a467be3)" d="M165 380.152h37.2" fill="none" stroke="red" stroke-linecap="square" id="line2d_14"/><g clip-path="url(#p2b4a467be3)" id="line2d_15"><use x="183.6" xlink:href="#mdff2d83161" y="380.167" fill="red" stroke="#000" stroke-width=".5"/></g><g clip-path="url(#p2b4a467be3)" fill="#00f" stroke="#000" stroke-width=".5" id="line2d_16"><use x="183.6" xlink:href="#m4ef53f7024" y="340.524"/><use x="183.6" xlink:href="#m4ef53f7024" y="364.821"/><use x="183.6" xlink:href="#m4ef53f7024" y="351.81"/></g><path clip-path="url(#p2b4a467be3)" d="M239.4 368.307h37.2v-23.221h-37.2v23.221" fill="none" stroke="#00f" stroke-linecap="square" id="line2d_17"/><path clip-path="url(#p2b4a467be3)" d="M258 368.307v6.616" fill="none" stroke="#00f" stroke-dasharray="6,6" id="line2d_18"/><path clip-path="url(#p2b4a467be3)" d="M258 345.086v-21.354" fill="none" stroke="#00f" stroke-dasharray="6,6" id="line2d_19"/><path clip-path="url(#p2b4a467be3)" d="M248.7 374.923h18.6" fill="none" stroke="#000" stroke-linecap="square" id="line2d_20"/><path clip-path="url(#p2b4a467be3)" d="M248.7 323.732h18.6" fill="none" stroke="#000" stroke-linecap="square" id="line2d_21"/><path clip-path="url(#p2b4a467be3)" d="M239.4 356.357h37.2" fill="none" stroke="red" stroke-linecap="square" id="line2d_22"/><g clip-path="url(#p2b4a467be3)" id="line2d_23"><use x="258" xlink:href="#mdff2d83161" y="355.226" fill="red" stroke="#000" stroke-width=".5"/></g><path clip-path="url(#p2b4a467be3)" d="M313.8 383.15H351v-11.78h-37.2v11.78" fill="none" stroke="#00f" stroke-linecap="square" id="line2d_25"/><path clip-path="url(#p2b4a467be3)" d="M332.4 383.15v4.27" fill="none" stroke="#00f" stroke-dasharray="6,6" id="line2d_26"/><path clip-path="url(#p2b4a467be3)" d="M332.4 371.37v-17.264" fill="none" stroke="#00f" stroke-dasharray="6,6" id="line2d_27"/><path clip-path="url(#p2b4a467be3)" d="M323.1 387.42h18.6" fill="none" stroke="#000" stroke-linecap="square" id="line2d_28"/><path clip-path="url(#p2b4a467be3)" d="M323.1 354.106h18.6" fill="none" stroke="#000" stroke-linecap="square" id="line2d_29"/><path clip-path="url(#p2b4a467be3)" d="M313.8 378.174H351" fill="none" stroke="red" stroke-linecap="square" id="line2d_30"/><g clip-path="url(#p2b4a467be3)" id="line2d_31"><use x="332.4" xlink:href="#mdff2d83161" y="374.95" fill="red" stroke="#000" stroke-width=".5"/></g><g clip-path="url(#p2b4a467be3)" fill="#00f" stroke="#000" stroke-width=".5" id="line2d_32"><use x="332.4" xlink:href="#m4ef53f7024" y="352.262"/><use x="332.4" xlink:href="#m4ef53f7024" y="348.667"/><use x="332.4" xlink:href="#m4ef53f7024" y="333.463"/><use x="332.4" xlink:href="#m4ef53f7024" y="352.627"/><use x="332.4" xlink:href="#m4ef53f7024" y="345.371"/><use x="332.4" xlink:href="#m4ef53f7024" y="327.789"/><use x="332.4" xlink:href="#m4ef53f7024" y="346.054"/><use x="332.4" xlink:href="#m4ef53f7024" y="350.395"/><use x="332.4" xlink:href="#m4ef53f7024" y="353.282"/><use x="332.4" xlink:href="#m4ef53f7024" y="352.946"/><use x="332.4" xlink:href="#m4ef53f7024" y="352.825"/><use x="332.4" xlink:href="#m4ef53f7024" y="353.547"/><use x="332.4" xlink:href="#m4ef53f7024" y="353.105"/></g><path clip-path="url(#p2b4a467be3)" d="M388.2 387.072h37.2v-17.136h-37.2v17.136" fill="none" stroke="#00f" stroke-linecap="square" id="line2d_33"/><path clip-path="url(#p2b4a467be3)" d="M406.8 387.072v1.152" fill="none" stroke="#00f" stroke-dasharray="6,6" id="line2d_34"/><path clip-path="url(#p2b4a467be3)" d="M406.8 369.936v-8.784" fill="none" stroke="#00f" stroke-dasharray="6,6" id="line2d_35"/><path clip-path="url(#p2b4a467be3)" d="M397.5 388.224h18.6" fill="none" stroke="#000" stroke-linecap="square" id="line2d_36"/><path clip-path="url(#p2b4a467be3)" d="M397.5 361.152h18.6" fill="none" stroke="#000" stroke-linecap="square" id="line2d_37"/><path clip-path="url(#p2b4a467be3)" d="M388.2 380.736h37.2" fill="none" stroke="red" stroke-linecap="square" id="line2d_38"/><g clip-path="url(#p2b4a467be3)" id="line2d_39"><use x="406.8" xlink:href="#mdff2d83161" y="377.689" fill="red" stroke="#000" stroke-width=".5"/></g><path clip-path="url(#p2b4a467be3)" d="M462.6 381.946h37.2v-1.844h-37.2v1.844" fill="none" stroke="#00f" stroke-linecap="square" id="line2d_41"/><path clip-path="url(#p2b4a467be3)" d="M481.2 381.946v2.361" fill="none" stroke="#00f" stroke-dasharray="6,6" id="line2d_42"/><path clip-path="url(#p2b4a467be3)" d="M481.2 380.102v-2.764" fill="none" stroke="#00f" stroke-dasharray="6,6" id="line2d_43"/><path clip-path="url(#p2b4a467be3)" d="M471.9 384.307h18.6" fill="none" stroke="#000" stroke-linecap="square" id="line2d_44"/><path clip-path="url(#p2b4a467be3)" d="M471.9 377.338h18.6" fill="none" stroke="#000" stroke-linecap="square" id="line2d_45"/><path clip-path="url(#p2b4a467be3)" d="M462.6 381.312h37.2" fill="none" stroke="red" stroke-linecap="square" id="line2d_46"/><g clip-path="url(#p2b4a467be3)" id="line2d_47"><use x="481.2" xlink:href="#mdff2d83161" y="379.29" fill="red" stroke="#000" stroke-width=".5"/></g><g clip-path="url(#p2b4a467be3)" fill="#00f" stroke="#000" stroke-width=".5" id="line2d_48"><use x="481.2" xlink:href="#m4ef53f7024" y="388.512"/><use x="481.2" xlink:href="#m4ef53f7024" y="388.512"/><use x="481.2" xlink:href="#m4ef53f7024" y="388.512"/><use x="481.2" xlink:href="#m4ef53f7024" y="388.224"/><use x="481.2" xlink:href="#m4ef53f7024" y="387.821"/><use x="481.2" xlink:href="#m4ef53f7024" y="387.475"/><use x="481.2" xlink:href="#m4ef53f7024" y="385.574"/><use x="481.2" xlink:href="#m4ef53f7024" y="386.093"/><use x="481.2" xlink:href="#m4ef53f7024" y="385.862"/><use x="481.2" xlink:href="#m4ef53f7024" y="386.035"/><use x="481.2" xlink:href="#m4ef53f7024" y="388.454"/><use x="481.2" xlink:href="#m4ef53f7024" y="388.454"/><use x="481.2" xlink:href="#m4ef53f7024" y="388.512"/><use x="481.2" xlink:href="#m4ef53f7024" y="388.224"/><use x="481.2" xlink:href="#m4ef53f7024" y="387.821"/><use x="481.2" xlink:href="#m4ef53f7024" y="387.13"/><use x="481.2" xlink:href="#m4ef53f7024" y="386.726"/><use x="481.2" xlink:href="#m4ef53f7024" y="386.093"/><use x="481.2" xlink:href="#m4ef53f7024" y="386.266"/><use x="481.2" xlink:href="#m4ef53f7024" y="385.92"/><use x="481.2" xlink:href="#m4ef53f7024" y="388.454"/><use x="481.2" xlink:href="#m4ef53f7024" y="388.454"/><use x="481.2" xlink:href="#m4ef53f7024" y="388.57"/><use x="481.2" xlink:href="#m4ef53f7024" y="388.224"/><use x="481.2" xlink:href="#m4ef53f7024" y="387.821"/><use x="481.2" xlink:href="#m4ef53f7024" y="387.187"/><use x="481.2" xlink:href="#m4ef53f7024" y="386.842"/><use x="481.2" xlink:href="#m4ef53f7024" y="385.286"/><use x="481.2" xlink:href="#m4ef53f7024" y="385.056"/><use x="481.2" xlink:href="#m4ef53f7024" y="385.805"/><use x="481.2" xlink:href="#m4ef53f7024" y="388.282"/><use x="481.2" xlink:href="#m4ef53f7024" y="388.454"/><use x="481.2" xlink:href="#m4ef53f7024" y="388.512"/><use x="481.2" xlink:href="#m4ef53f7024" y="388.166"/><use x="481.2" xlink:href="#m4ef53f7024" y="387.59"/><use x="481.2" xlink:href="#m4ef53f7024" y="387.302"/><use x="481.2" xlink:href="#m4ef53f7024" y="386.726"/><use x="481.2" xlink:href="#m4ef53f7024" y="385.747"/><use x="481.2" xlink:href="#m4ef53f7024" y="385.92"/><use x="481.2" xlink:href="#m4ef53f7024" y="385.862"/><use x="481.2" xlink:href="#m4ef53f7024" y="388.512"/><use x="481.2" xlink:href="#m4ef53f7024" y="388.282"/><use x="481.2" xlink:href="#m4ef53f7024" y="388.57"/><use x="481.2" xlink:href="#m4ef53f7024" y="388.166"/><use x="481.2" xlink:href="#m4ef53f7024" y="387.821"/><use x="481.2" xlink:href="#m4ef53f7024" y="387.36"/><use x="481.2" xlink:href="#m4ef53f7024" y="385.286"/><use x="481.2" xlink:href="#m4ef53f7024" y="385.862"/><use x="481.2" xlink:href="#m4ef53f7024" y="386.208"/><use x="481.2" xlink:href="#m4ef53f7024" y="385.517"/><use x="481.2" xlink:href="#m4ef53f7024" y="368.179"/><use x="481.2" xlink:href="#m4ef53f7024" y="371.059"/><use x="481.2" xlink:href="#m4ef53f7024" y="373.594"/><use x="481.2" xlink:href="#m4ef53f7024" y="376.243"/><use x="481.2" xlink:href="#m4ef53f7024" y="376.358"/><use x="481.2" xlink:href="#m4ef53f7024" y="375.206"/><use x="481.2" xlink:href="#m4ef53f7024" y="373.594"/><use x="481.2" xlink:href="#m4ef53f7024" y="373.421"/><use x="481.2" xlink:href="#m4ef53f7024" y="374.285"/><use x="481.2" xlink:href="#m4ef53f7024" y="368.755"/><use x="481.2" xlink:href="#m4ef53f7024" y="375.379"/><use x="481.2" xlink:href="#m4ef53f7024" y="376.819"/><use x="481.2" xlink:href="#m4ef53f7024" y="376.531"/><use x="481.2" xlink:href="#m4ef53f7024" y="377.222"/><use x="481.2" xlink:href="#m4ef53f7024" y="376.704"/><use x="481.2" xlink:href="#m4ef53f7024" y="376.704"/><use x="481.2" xlink:href="#m4ef53f7024" y="376.934"/><use x="481.2" xlink:href="#m4ef53f7024" y="348.883"/><use x="481.2" xlink:href="#m4ef53f7024" y="313.978"/><use x="481.2" xlink:href="#m4ef53f7024" y="312.595"/><use x="481.2" xlink:href="#m4ef53f7024" y="309.888"/><use x="481.2" xlink:href="#m4ef53f7024" y="313.517"/><use x="481.2" xlink:href="#m4ef53f7024" y="368.41"/><use x="481.2" xlink:href="#m4ef53f7024" y="375.552"/><use x="481.2" xlink:href="#m4ef53f7024" y="369.965"/><use x="481.2" xlink:href="#m4ef53f7024" y="376.934"/><use x="481.2" xlink:href="#m4ef53f7024" y="376.704"/><use x="481.2" xlink:href="#m4ef53f7024" y="376.416"/><use x="481.2" xlink:href="#m4ef53f7024" y="376.934"/><use x="481.2" xlink:href="#m4ef53f7024" y="376.013"/><use x="481.2" xlink:href="#m4ef53f7024" y="375.667"/><use x="481.2" xlink:href="#m4ef53f7024" y="372.845"/><use x="481.2" xlink:href="#m4ef53f7024" y="369.562"/><use x="481.2" xlink:href="#m4ef53f7024" y="373.882"/><use x="481.2" xlink:href="#m4ef53f7024" y="376.934"/><use x="481.2" xlink:href="#m4ef53f7024" y="376.358"/><use x="481.2" xlink:href="#m4ef53f7024" y="376.301"/><use x="481.2" xlink:href="#m4ef53f7024" y="377.165"/><use x="481.2" xlink:href="#m4ef53f7024" y="348.595"/><use x="481.2" xlink:href="#m4ef53f7024" y="317.376"/><use x="481.2" xlink:href="#m4ef53f7024" y="312.077"/><use x="481.2" xlink:href="#m4ef53f7024" y="307.526"/><use x="481.2" xlink:href="#m4ef53f7024" y="313.286"/><use x="481.2" xlink:href="#m4ef53f7024" y="366.912"/><use x="481.2" xlink:href="#m4ef53f7024" y="374.976"/><use x="481.2" xlink:href="#m4ef53f7024" y="370.656"/><use x="481.2" xlink:href="#m4ef53f7024" y="376.013"/><use x="481.2" xlink:href="#m4ef53f7024" y="376.416"/><use x="481.2" xlink:href="#m4ef53f7024" y="376.934"/><use x="481.2" xlink:href="#m4ef53f7024" y="374.458"/><use x="481.2" xlink:href="#m4ef53f7024" y="375.955"/><use x="481.2" xlink:href="#m4ef53f7024" y="375.034"/><use x="481.2" xlink:href="#m4ef53f7024" y="373.19"/><use x="481.2" xlink:href="#m4ef53f7024" y="372.672"/><use x="481.2" xlink:href="#m4ef53f7024" y="369.274"/><use x="481.2" xlink:href="#m4ef53f7024" y="374.976"/><use x="481.2" xlink:href="#m4ef53f7024" y="377.28"/><use x="481.2" xlink:href="#m4ef53f7024" y="377.28"/><use x="481.2" xlink:href="#m4ef53f7024" y="374.63"/><use x="481.2" xlink:href="#m4ef53f7024" y="377.107"/><use x="481.2" xlink:href="#m4ef53f7024" y="376.589"/><use x="481.2" xlink:href="#m4ef53f7024" y="376.128"/><use x="481.2" xlink:href="#m4ef53f7024" y="348.192"/><use x="481.2" xlink:href="#m4ef53f7024" y="312.71"/><use x="481.2" xlink:href="#m4ef53f7024" y="304.301"/><use x="481.2" xlink:href="#m4ef53f7024" y="300.672"/><use x="481.2" xlink:href="#m4ef53f7024" y="308.39"/><use x="481.2" xlink:href="#m4ef53f7024" y="367.488"/><use x="481.2" xlink:href="#m4ef53f7024" y="375.667"/><use x="481.2" xlink:href="#m4ef53f7024" y="368.006"/><use x="481.2" xlink:href="#m4ef53f7024" y="376.992"/><use x="481.2" xlink:href="#m4ef53f7024" y="376.416"/><use x="481.2" xlink:href="#m4ef53f7024" y="375.494"/><use x="481.2" xlink:href="#m4ef53f7024" y="375.61"/><use x="481.2" xlink:href="#m4ef53f7024" y="374.861"/><use x="481.2" xlink:href="#m4ef53f7024" y="372.499"/><use x="481.2" xlink:href="#m4ef53f7024" y="372.442"/><use x="481.2" xlink:href="#m4ef53f7024" y="372.384"/><use x="481.2" xlink:href="#m4ef53f7024" y="372.672"/><use x="481.2" xlink:href="#m4ef53f7024" y="366.106"/><use x="481.2" xlink:href="#m4ef53f7024" y="373.651"/><use x="481.2" xlink:href="#m4ef53f7024" y="375.61"/><use x="481.2" xlink:href="#m4ef53f7024" y="373.363"/><use x="481.2" xlink:href="#m4ef53f7024" y="375.034"/><use x="481.2" xlink:href="#m4ef53f7024" y="373.133"/><use x="481.2" xlink:href="#m4ef53f7024" y="371.808"/><use x="481.2" xlink:href="#m4ef53f7024" y="376.013"/><use x="481.2" xlink:href="#m4ef53f7024" y="377.28"/><use x="481.2" xlink:href="#m4ef53f7024" y="377.28"/><use x="481.2" xlink:href="#m4ef53f7024" y="350.554"/><use x="481.2" xlink:href="#m4ef53f7024" y="313.459"/><use x="481.2" xlink:href="#m4ef53f7024" y="316.224"/><use x="481.2" xlink:href="#m4ef53f7024" y="304.704"/><use x="481.2" xlink:href="#m4ef53f7024" y="310.003"/><use x="481.2" xlink:href="#m4ef53f7024" y="367.258"/><use x="481.2" xlink:href="#m4ef53f7024" y="370.195"/><use x="481.2" xlink:href="#m4ef53f7024" y="377.28"/><use x="481.2" xlink:href="#m4ef53f7024" y="375.149"/><use x="481.2" xlink:href="#m4ef53f7024" y="376.416"/><use x="481.2" xlink:href="#m4ef53f7024" y="374.285"/><use x="481.2" xlink:href="#m4ef53f7024" y="374.515"/><use x="481.2" xlink:href="#m4ef53f7024" y="376.013"/><use x="481.2" xlink:href="#m4ef53f7024" y="373.997"/><use x="481.2" xlink:href="#m4ef53f7024" y="373.075"/><use x="481.2" xlink:href="#m4ef53f7024" y="369.158"/><use x="481.2" xlink:href="#m4ef53f7024" y="376.531"/><use x="481.2" xlink:href="#m4ef53f7024" y="374.227"/><use x="481.2" xlink:href="#m4ef53f7024" y="375.552"/><use x="481.2" xlink:href="#m4ef53f7024" y="376.704"/><use x="481.2" xlink:href="#m4ef53f7024" y="376.531"/><use x="481.2" xlink:href="#m4ef53f7024" y="372.902"/><use x="481.2" xlink:href="#m4ef53f7024" y="374.4"/><use x="481.2" xlink:href="#m4ef53f7024" y="347.674"/><use x="481.2" xlink:href="#m4ef53f7024" y="374.515"/><use x="481.2" xlink:href="#m4ef53f7024" y="353.088"/><use x="481.2" xlink:href="#m4ef53f7024" y="305.453"/><use x="481.2" xlink:href="#m4ef53f7024" y="376.186"/><use x="481.2" xlink:href="#m4ef53f7024" y="297.562"/><use x="481.2" xlink:href="#m4ef53f7024" y="312.538"/><use x="481.2" xlink:href="#m4ef53f7024" y="305.28"/></g><path d="M72 43.2h446.4" fill="none" stroke="#000" stroke-linecap="square" id="patch_3"/><path d="M518.4 388.8V43.2" fill="none" stroke="#000" stroke-linecap="square" id="patch_4"/><path d="M72 388.8h446.4" fill="none" stroke="#000" stroke-linecap="square" id="patch_5"/><path d="M72 388.8V43.2" fill="none" stroke="#000" stroke-linecap="square" id="patch_6"/><g id="matplotlib.axis_1"><g id="xtick_1"><g id="line2d_49"><defs><path d="M0 0v-4" id="m34724e5fd5" stroke="#000" stroke-width=".5"/></defs><use x="109.2" xlink:href="#m34724e5fd5" y="388.8" stroke="#000" stroke-width=".5"/></g><g id="line2d_50"><defs><path d="M0 0v4" id="m223c675193" stroke="#000" stroke-width=".5"/></defs><use x="109.2" xlink:href="#m223c675193" y="43.2" stroke="#000" stroke-width=".5"/></g><g id="text_1"><defs><path d="M56.203 29.594v-4.39H14.891q.593-9.282 5.593-14.142 5-4.859 13.938-4.859 5.172 0 10.031 1.266 4.86 1.265 9.656 3.812v-8.5Q49.266.734 44.187-.344 39.11-1.422 33.892-1.422q-13.094 0-20.735 7.61-7.64 7.625-7.64 20.625 0 13.421 7.25 21.296Q20.016 56 32.328 56q11.031 0 17.453-7.11 6.422-7.093 6.422-19.296m-8.984 2.64q-.094 7.36-4.125 11.75-4.032 4.407-10.672 4.407-7.516 0-12.031-4.25-4.516-4.25-5.203-11.97z" id="BitstreamVeraSans-Roman-65"/><path d="M45.406 46.39v29.594h8.985V0h-8.985v8.203Q42.578 3.328 38.25.953q-4.313-2.375-10.375-2.375-9.906 0-16.14 7.906-6.22 7.922-6.22 20.813 0 12.89 6.22 20.797Q17.968 56 27.874 56q6.063 0 10.375-2.375 4.328-2.36 7.156-7.234m-30.61-19.094q0-9.906 4.079-15.547 4.078-5.64 11.203-5.64 7.125 0 11.219 5.64 4.11 5.64 4.11 15.547 0 9.906-4.11 15.547-4.094 5.64-11.219 5.64-7.125 0-11.203-5.64-4.078-5.64-4.078-15.547" id="BitstreamVeraSans-Roman-64"/><path d="M9.813 72.906h13.28l32.329-60.984v60.984h9.562V0h-13.28L19.39 60.984V0H9.813z" id="BitstreamVeraSans-Roman-4e"/><path d="M30.61 48.39q-7.22 0-11.422-5.64-4.204-5.64-4.204-15.453 0-9.813 4.172-15.453 4.188-5.64 11.453-5.64 7.188 0 11.375 5.655 4.203 5.672 4.203 15.438 0 9.719-4.203 15.406-4.187 5.688-11.375 5.688m0 7.609q11.72 0 18.407-7.625 6.703-7.61 6.703-21.078 0-13.422-6.703-21.078-6.688-7.64-18.407-7.64-11.765 0-18.437 7.64-6.656 7.656-6.656 21.078 0 13.469 6.656 21.078Q18.844 56 30.609 56" id="BitstreamVeraSans-Roman-6f"/></defs><g transform="matrix(.12 0 0 -.12 93.54 401.918)"><use xlink:href="#BitstreamVeraSans-Roman-4e"/><use x="74.805" xlink:href="#BitstreamVeraSans-Roman-6f"/><use x="135.986" xlink:href="#BitstreamVeraSans-Roman-64"/><use x="199.463" xlink:href="#BitstreamVeraSans-Roman-65"/></g></g></g><g id="xtick_2"><use x="183.6" xlink:href="#m34724e5fd5" y="388.8" stroke="#000" stroke-width=".5" id="line2d_51"/><use x="183.6" xlink:href="#m223c675193" y="43.2" stroke="#000" stroke-width=".5" id="line2d_52"/><g id="text_2"><defs><path d="M12.406 8.297h16.11v55.625l-17.532-3.516v8.985l17.438 3.515h9.86V8.296H54.39V0H12.406z" id="BitstreamVeraSans-Roman-31"/><path d="M9.813 72.906h9.859V5.078q0-13.187-5-19.14-5-5.954-16.094-5.954h-3.75v8.297h3.078q6.531 0 9.219 3.672Q9.813-4.39 9.813 5.078z" id="BitstreamVeraSans-Roman-4a"/><path d="M59.516 10.406v19.578h-16.11v8.11h25.875V6.78Q63.578 2.734 56.687.656 49.813-1.422 42-1.422q-17.094 0-26.75 9.985-9.64 10-9.64 27.812 0 17.875 9.64 27.86 9.656 9.984 26.75 9.984 7.125 0 13.547-1.766 6.422-1.75 11.844-5.172v-10.5q-5.47 4.64-11.625 6.985-6.157 2.343-12.938 2.343-13.39 0-20.11-7.468-6.702-7.47-6.702-22.266 0-14.75 6.703-22.219 6.718-7.469 20.11-7.469 5.218 0 9.312.907 4.109.906 7.375 2.812" id="BitstreamVeraSans-Roman-47"/><path d="M2.984 54.688H12.5L29.594 8.797l17.093 45.89h9.516L35.687 0H23.485z" id="BitstreamVeraSans-Roman-76"/><path d="M34.281 27.484q-10.89 0-15.093-2.484-4.204-2.484-4.204-8.5 0-4.781 3.157-7.594 3.156-2.797 8.562-2.797 7.485 0 12 5.297 4.516 5.297 4.516 14.078v2zm17.922 3.72V0H43.22v8.297Q40.14 3.328 35.547.953q-4.594-2.375-11.234-2.375-8.391 0-13.36 4.719Q6 8.016 6 15.922q0 9.219 6.172 13.906 6.187 4.688 18.437 4.688h12.61v.89q0 6.203-4.078 9.594-4.078 3.39-11.453 3.39-4.688 0-9.141-1.124-4.438-1.125-8.531-3.375v8.312q4.921 1.906 9.562 2.844 4.64.953 9.031.953 11.875 0 17.735-6.156 5.86-6.14 5.86-18.64" id="BitstreamVeraSans-Roman-61"/></defs><g transform="matrix(.12 0 0 -.12 160.552 401.918)"><use xlink:href="#BitstreamVeraSans-Roman-4a"/><use x="29.492" xlink:href="#BitstreamVeraSans-Roman-61"/><use x="90.771" xlink:href="#BitstreamVeraSans-Roman-76"/><use x="149.951" xlink:href="#BitstreamVeraSans-Roman-61"/><use x="211.23" xlink:href="#BitstreamVeraSans-Roman-20"/><use x="243.018" xlink:href="#BitstreamVeraSans-Roman-47"/><use x="320.508" xlink:href="#BitstreamVeraSans-Roman-31"/></g></g></g><g id="xtick_3"><use x="258" xlink:href="#m34724e5fd5" y="388.8" stroke="#000" stroke-width=".5" id="line2d_53"/><use x="258" xlink:href="#m223c675193" y="43.2" stroke="#000" stroke-width=".5" id="line2d_54"/><g transform="matrix(.12 0 0 -.12 245.325 401.918)" id="text_3"><use xlink:href="#BitstreamVeraSans-Roman-4a"/><use x="29.492" xlink:href="#BitstreamVeraSans-Roman-61"/><use x="90.771" xlink:href="#BitstreamVeraSans-Roman-76"/><use x="149.951" xlink:href="#BitstreamVeraSans-Roman-61"/></g></g><g id="xtick_4"><use x="332.4" xlink:href="#m34724e5fd5" y="388.8" stroke="#000" stroke-width=".5" id="line2d_55"/><use x="332.4" xlink:href="#m223c675193" y="43.2" stroke="#000" stroke-width=".5" id="line2d_56"/><g id="text_4"><defs><path d="M53.516 70.516V60.89q-5.61 2.687-10.594 4-4.984 1.328-9.625 1.328-8.047 0-12.422-3.125t-4.375-8.89q0-4.845 2.906-7.313 2.907-2.453 11.016-3.97l5.953-1.218q11.031-2.11 16.281-7.406 5.25-5.297 5.25-14.172 0-10.61-7.11-16.078-7.093-5.469-20.812-5.469-5.172 0-11.015 1.172Q13.14.922 6.89 3.219v10.156q6-3.36 11.765-5.078 5.766-1.703 11.328-1.703 8.438 0 13.032 3.312 4.593 3.328 4.593 9.485 0 5.359-3.297 8.39-3.296 3.032-10.812 4.547L27.484 33.5q-11.03 2.188-15.968 6.875-4.922 4.688-4.922 13.047 0 9.672 6.812 15.234 6.813 5.563 18.766 5.563 5.14 0 10.453-.938 5.328-.922 10.89-2.765" id="BitstreamVeraSans-Roman-53"/><path d="M9.422 75.984h8.984V0H9.422z" id="BitstreamVeraSans-Roman-6c"/><path d="M48.781 52.594v-8.407q-3.812 2.11-7.64 3.157-3.828 1.047-7.735 1.047-8.75 0-13.593-5.547-4.829-5.532-4.829-15.547 0-10.016 4.829-15.563 4.843-5.53 13.593-5.53 3.907 0 7.735 1.046 3.828 1.047 7.64 3.156V2.094Q45.016.344 40.984-.531q-4.015-.89-8.562-.89-12.36 0-19.64 7.765-7.266 7.765-7.266 20.953 0 13.375 7.343 21.031Q20.22 56 33.016 56q4.14 0 8.093-.86 3.953-.843 7.672-2.546" id="BitstreamVeraSans-Roman-63"/></defs><g transform="matrix(.12 0 0 -.12 316.271 401.918)"><use xlink:href="#BitstreamVeraSans-Roman-53"/><use x="63.477" xlink:href="#BitstreamVeraSans-Roman-63"/><use x="118.457" xlink:href="#BitstreamVeraSans-Roman-61"/><use x="179.736" xlink:href="#BitstreamVeraSans-Roman-6c"/><use x="207.52" xlink:href="#BitstreamVeraSans-Roman-61"/></g></g></g><g id="xtick_5"><use x="406.8" xlink:href="#m34724e5fd5" y="388.8" stroke="#000" stroke-width=".5" id="line2d_57"/><use x="406.8" xlink:href="#m223c675193" y="43.2" stroke="#000" stroke-width=".5" id="line2d_58"/><g id="text_5"><defs><path d="M9.078 75.984h9.031V31.11l26.813 23.578H56.39l-29-25.578L57.625 0H45.906L18.11 26.703V0H9.08z" id="BitstreamVeraSans-Roman-6b"/><path d="M44.281 53.078v-8.5q-3.797 1.953-7.906 2.922-4.094.984-8.5.984-6.688 0-10.031-2.047-3.344-2.046-3.344-6.156 0-3.125 2.39-4.906 2.391-1.781 9.626-3.39l3.078-.688q9.562-2.047 13.593-5.781 4.032-3.735 4.032-10.422 0-7.625-6.032-12.078-6.03-4.438-16.578-4.438-4.39 0-9.156.86Q10.688.296 5.422 2v9.281q4.984-2.594 9.812-3.89 4.829-1.282 9.579-1.282 6.343 0 9.75 2.172 3.421 2.172 3.421 6.125 0 3.656-2.468 5.61-2.453 1.953-10.813 3.765l-3.125.735q-8.344 1.75-12.062 5.39-3.704 3.64-3.704 9.985 0 7.718 5.47 11.906Q16.75 56 26.811 56q4.97 0 9.36-.734 4.406-.72 8.11-2.188" id="BitstreamVeraSans-Roman-73"/><path d="M9.813 72.906h9.859v-29.89h35.844v29.89h9.859V0h-9.86v34.719H19.673V0h-9.86z" id="BitstreamVeraSans-Roman-48"/></defs><g transform="matrix(.12 0 0 -.12 384.988 401.918)"><use xlink:href="#BitstreamVeraSans-Roman-48"/><use x="75.195" xlink:href="#BitstreamVeraSans-Roman-61"/><use x="136.475" xlink:href="#BitstreamVeraSans-Roman-73"/><use x="188.574" xlink:href="#BitstreamVeraSans-Roman-6b"/><use x="246.438" xlink:href="#BitstreamVeraSans-Roman-65"/><use x="307.961" xlink:href="#BitstreamVeraSans-Roman-6c"/><use x="335.744" xlink:href="#BitstreamVeraSans-Roman-6c"/></g></g></g><g id="xtick_6"><use x="481.2" xlink:href="#m34724e5fd5" y="388.8" stroke="#000" stroke-width=".5" id="line2d_59"/><use x="481.2" xlink:href="#m223c675193" y="43.2" stroke="#000" stroke-width=".5" id="line2d_60"/><g id="text_6"><defs><path d="M52 44.188q3.375 6.062 8.063 8.937Q64.75 56 71.093 56q8.548 0 13.188-5.984 4.64-5.97 4.64-17V0h-9.03v32.719q0 7.86-2.797 11.656-2.781 3.813-8.485 3.813-6.984 0-11.046-4.641-4.047-4.625-4.047-12.64V0h-9.032v32.719q0 7.906-2.78 11.687-2.782 3.782-8.595 3.782-6.89 0-10.953-4.657-4.047-4.656-4.047-12.625V0H9.08v54.688h9.03v-8.5q3.078 5.03 7.375 7.421Q29.781 56 35.687 56q5.97 0 10.141-3.031Q50 49.953 52 44.187" id="BitstreamVeraSans-Roman-6d"/><path d="M9.422 54.688h8.984V0H9.422zm0 21.296h8.984v-11.39H9.422z" id="BitstreamVeraSans-Roman-69"/></defs><g transform="matrix(.12 0 0 -.12 450.277 401.918)"><use xlink:href="#BitstreamVeraSans-Roman-4e"/><use x="74.805" xlink:href="#BitstreamVeraSans-Roman-6f"/><use x="135.986" xlink:href="#BitstreamVeraSans-Roman-64"/><use x="199.463" xlink:href="#BitstreamVeraSans-Roman-65"/><use x="260.986" xlink:href="#BitstreamVeraSans-Roman-20"/><use x="292.773" xlink:href="#BitstreamVeraSans-Roman-69"/><use x="320.557" xlink:href="#BitstreamVeraSans-Roman-6d"/><use x="417.969" xlink:href="#BitstreamVeraSans-Roman-6d"/></g></g></g></g><g id="matplotlib.axis_2"><g id="ytick_1"><g id="line2d_61"><defs><path d="M0 0h4" id="m941518332c" stroke="#000" stroke-width=".5"/></defs><use x="72" xlink:href="#m941518332c" y="388.8" stroke="#000" stroke-width=".5"/></g><g id="line2d_62"><defs><path d="M0 0h-4" id="mfd27f5a589" stroke="#000" stroke-width=".5"/></defs><use x="518.4" xlink:href="#mfd27f5a589" y="388.8" stroke="#000" stroke-width=".5"/></g><g id="text_7"><defs><path d="M31.781 66.406q-7.61 0-11.453-7.5Q16.5 51.422 16.5 36.375q0-14.984 3.828-22.484 3.844-7.5 11.453-7.5 7.672 0 11.5 7.5 3.844 7.5 3.844 22.484 0 15.047-3.844 22.531-3.828 7.5-11.5 7.5m0 7.813q12.266 0 18.735-9.703 6.468-9.688 6.468-28.141 0-18.406-6.468-28.11-6.47-9.687-18.735-9.687-12.25 0-18.718 9.688-6.47 9.703-6.47 28.109 0 18.453 6.47 28.14Q19.53 74.22 31.78 74.22" id="BitstreamVeraSans-Roman-30"/></defs><use xlink:href="#BitstreamVeraSans-Roman-30" transform="matrix(.12 0 0 -.12 60.365 392.111)"/></g></g><g id="ytick_2"><use x="72" xlink:href="#m941518332c" y="331.2" stroke="#000" stroke-width=".5" id="line2d_63"/><use x="518.4" xlink:href="#mfd27f5a589" y="331.2" stroke="#000" stroke-width=".5" id="line2d_64"/><g transform="matrix(.12 0 0 -.12 45.095 334.511)" id="text_8"><use xlink:href="#BitstreamVeraSans-Roman-31"/><use x="63.623" xlink:href="#BitstreamVeraSans-Roman-30"/><use x="127.246" xlink:href="#BitstreamVeraSans-Roman-30"/></g></g><g id="ytick_3"><use x="72" xlink:href="#m941518332c" y="273.6" stroke="#000" stroke-width=".5" id="line2d_65"/><use x="518.4" xlink:href="#mfd27f5a589" y="273.6" stroke="#000" stroke-width=".5" id="line2d_66"/><g id="text_9"><defs><path d="M19.188 8.297h34.421V0H7.33v8.297q5.609 5.812 15.296 15.594 9.703 9.797 12.188 12.64 4.734 5.313 6.609 9 1.89 3.688 1.89 7.25 0 5.813-4.078 9.469-4.078 3.672-10.625 3.672-4.64 0-9.797-1.61-5.14-1.609-11-4.89v9.969Q13.767 71.78 18.938 73q5.188 1.219 9.485 1.219 11.328 0 18.062-5.672 6.735-5.656 6.735-15.125 0-4.5-1.688-8.531-1.672-4.016-6.125-9.485-1.218-1.422-7.765-8.187-6.532-6.766-18.453-18.922" id="BitstreamVeraSans-Roman-32"/></defs><g transform="matrix(.12 0 0 -.12 45.095 276.911)"><use xlink:href="#BitstreamVeraSans-Roman-32"/><use x="63.623" xlink:href="#BitstreamVeraSans-Roman-30"/><use x="127.246" xlink:href="#BitstreamVeraSans-Roman-30"/></g></g></g><g id="ytick_4"><use x="72" xlink:href="#m941518332c" y="216" stroke="#000" stroke-width=".5" id="line2d_67"/><use x="518.4" xlink:href="#mfd27f5a589" y="216" stroke="#000" stroke-width=".5" id="line2d_68"/><g id="text_10"><defs><path d="M40.578 39.313Q47.656 37.797 51.625 33q3.984-4.781 3.984-11.813 0-10.78-7.422-16.703-7.421-5.906-21.093-5.906-4.578 0-9.438.906-4.86.907-10.031 2.72v9.515q4.094-2.39 8.969-3.61 4.89-1.218 10.218-1.218 9.266 0 14.125 3.656 4.86 3.656 4.86 10.64 0 6.454-4.516 10.079-4.515 3.64-12.562 3.64h-8.5v8.11h8.89q7.266 0 11.125 2.906 3.86 2.906 3.86 8.375 0 5.61-3.985 8.61-3.968 3.015-11.39 3.015-4.063 0-8.703-.89-4.641-.876-10.203-2.72v8.782q5.624 1.562 10.53 2.344 4.907.78 9.25.78 11.235 0 17.766-5.109 6.547-5.093 6.547-13.78 0-6.063-3.468-10.235-3.47-4.172-9.86-5.782" id="BitstreamVeraSans-Roman-33"/></defs><g transform="matrix(.12 0 0 -.12 45.095 219.311)"><use xlink:href="#BitstreamVeraSans-Roman-33"/><use x="63.623" xlink:href="#BitstreamVeraSans-Roman-30"/><use x="127.246" xlink:href="#BitstreamVeraSans-Roman-30"/></g></g></g><g id="ytick_5"><use x="72" xlink:href="#m941518332c" y="158.4" stroke="#000" stroke-width=".5" id="line2d_69"/><use x="518.4" xlink:href="#mfd27f5a589" y="158.4" stroke="#000" stroke-width=".5" id="line2d_70"/><g id="text_11"><defs><path d="M37.797 64.313L12.89 25.39h24.906zm-2.594 8.593H47.61V25.391h10.407v-8.203H47.609V0h-9.812v17.188H4.89v9.515z" id="BitstreamVeraSans-Roman-34"/></defs><g transform="matrix(.12 0 0 -.12 45.095 161.711)"><use xlink:href="#BitstreamVeraSans-Roman-34"/><use x="63.623" xlink:href="#BitstreamVeraSans-Roman-30"/><use x="127.246" xlink:href="#BitstreamVeraSans-Roman-30"/></g></g></g><g id="ytick_6"><use x="72" xlink:href="#m941518332c" y="100.8" stroke="#000" stroke-width=".5" id="line2d_71"/><use x="518.4" xlink:href="#mfd27f5a589" y="100.8" stroke="#000" stroke-width=".5" id="line2d_72"/><g id="text_12"><defs><path d="M10.797 72.906h38.719v-8.312H19.828v-17.86q2.14.735 4.281 1.094 2.157.36 4.313.36 12.203 0 19.328-6.688 7.14-6.688 7.14-18.11 0-11.765-7.328-18.296-7.328-6.516-20.656-6.516-4.593 0-9.36.781-4.75.782-9.827 2.344v9.922q4.39-2.39 9.078-3.563 4.687-1.171 9.906-1.171 8.453 0 13.375 4.437 4.938 4.438 4.938 12.063 0 7.609-4.938 12.047-4.922 4.453-13.375 4.453-3.953 0-7.89-.875-3.922-.875-8.016-2.735z" id="BitstreamVeraSans-Roman-35"/></defs><g transform="matrix(.12 0 0 -.12 45.095 104.111)"><use xlink:href="#BitstreamVeraSans-Roman-35"/><use x="63.623" xlink:href="#BitstreamVeraSans-Roman-30"/><use x="127.246" xlink:href="#BitstreamVeraSans-Roman-30"/></g></g></g><g id="ytick_7"><use x="72" xlink:href="#m941518332c" y="43.2" stroke="#000" stroke-width=".5" id="line2d_73"/><use x="518.4" xlink:href="#mfd27f5a589" y="43.2" stroke="#000" stroke-width=".5" id="line2d_74"/><g id="text_13"><defs><path d="M33.016 40.375q-6.641 0-10.532-4.547-3.875-4.531-3.875-12.437 0-7.86 3.875-12.438 3.891-4.562 10.532-4.562 6.64 0 10.515 4.562 3.875 4.578 3.875 12.438 0 7.906-3.875 12.437-3.875 4.547-10.515 4.547m19.578 30.922v-8.984q-3.719 1.75-7.5 2.671-3.782.938-7.5.938-9.766 0-14.922-6.594-5.14-6.594-5.875-19.922 2.875 4.25 7.219 6.516 4.359 2.266 9.578 2.266 10.984 0 17.36-6.672 6.374-6.657 6.374-18.125 0-11.235-6.64-18.032-6.641-6.78-17.672-6.78-12.657 0-19.344 9.687-6.688 9.703-6.688 28.109 0 17.281 8.204 27.563 8.203 10.28 22.015 10.28 3.719 0 7.5-.734t7.89-2.187" id="BitstreamVeraSans-Roman-36"/></defs><g transform="matrix(.12 0 0 -.12 45.095 46.511)"><use xlink:href="#BitstreamVeraSans-Roman-36"/><use x="63.623" xlink:href="#BitstreamVeraSans-Roman-30"/><use x="127.246" xlink:href="#BitstreamVeraSans-Roman-30"/></g></g></g></g></g></g><defs><clipPath id="p2b4a467be3"><path d="M72 43.2h446.4v345.6H72z"/></clipPath></defs></svg>