<svg height="576" viewBox="0 0 576 432" width="768" xmlns="http://www.w3.org/2000/svg" xmlns:xlink="http://www.w3.org/1999/xlink"><defs><style>*{stroke-linecap:butt;stroke-linejoin:round;stroke-miterlimit:100000}</style></defs><g id="figure_1"><path d="M0 432h576V0H0z" fill="#fff" id="patch_1"/><g id="axes_1"><path d="M72 388.8h446.4V43.2H72z" fill="#fff" id="patch_2"/><path clip-path="url(#pb6c46263ec)" d="M89.736 314.97h37.275V148.629H89.736v166.34" fill="none" stroke="#00f" stroke-linecap="square" id="line2d_1"/><path clip-path="url(#pb6c46263ec)" d="M108.373 314.97v72.347" fill="none" stroke="#00f" stroke-dasharray="6,6" id="line2d_2"/><path clip-path="url(#pb6c46263ec)" d="M108.373 148.629V71.24" fill="none" stroke="#00f" stroke-dasharray="6,6" id="line2d_3"/><path clip-path="url(#pb6c46263ec)" d="M99.055 387.317h18.637" fill="none" stroke="#000" stroke-linecap="square" id="line2d_4"/><path clip-path="url(#pb6c46263ec)" d="M99.055 71.24h18.637" fill="none" stroke="#000" stroke-linecap="square" id="line2d_5"/><path clip-path="url(#pb6c46263ec)" d="M89.736 197.552h37.275" fill="none" stroke="red" stroke-linecap="square" id="line2d_6"/><g id="line2d_7"><defs><path d="M-3 3h6v-6h-6z" id="md5ea082d96" stroke="#000" stroke-width=".5"/></defs><g clip-path="url(#pb6c46263ec)"><use x="108.373" xlink:href="#md5ea082d96" y="63.502" fill="red" stroke="#000" stroke-width=".5"/></g></g><g id="line2d_8"><defs><path d="M-3 0h6M0 3v-6" id="m36fe7b8114" stroke="#000" stroke-width=".5"/></defs><g clip-path="url(#pb6c46263ec)"><use x="108.373" xlink:href="#m36fe7b8114" y="-598.274" fill="#00f" stroke="#000" stroke-width=".5"/></g></g><path clip-path="url(#pb6c46263ec)" d="M164.286 363.303h37.275v-29.32h-37.275v29.32" fill="none" stroke="#00f" stroke-linecap="square" id="line2d_9"/><path clip-path="url(#pb6c46263ec)" d="M182.924 363.303v23.238" fill="none" stroke="#00f" stroke-dasharray="6,6" id="line2d_10"/><path clip-path="url(#pb6c46263ec)" d="M182.924 333.984v-37.922" fill="none" stroke="#00f" stroke-dasharray="6,6" id="line2d_11"/><path clip-path="url(#pb6c46263ec)" d="M173.605 386.541h18.637" fill="none" stroke="#000" stroke-linecap="square" id="line2d_12"/><path clip-path="url(#pb6c46263ec)" d="M173.605 296.062h18.637" fill="none" stroke="#000" stroke-linecap="square" id="line2d_13"/><path clip-path="url(#pb6c46263ec)" d="M164.286 344.284h37.275" fill="none" stroke="red" stroke-linecap="square" id="line2d_14"/><g clip-path="url(#pb6c46263ec)" id="line2d_15"><use x="182.924" xlink:href="#md5ea082d96" y="344.358" fill="red" stroke="#000" stroke-width=".5"/></g><g clip-path="url(#pb6c46263ec)" fill="#00f" stroke="#000" stroke-width=".5" id="line2d_16"><use x="182.924" xlink:href="#m36fe7b8114" y="140.287"/><use x="182.924" xlink:href="#m36fe7b8114" y="265.363"/><use x="182.924" xlink:href="#m36fe7b8114" y="198.387"/></g><path clip-path="url(#pb6c46263ec)" d="M238.836 283.31h37.276V163.771h-37.276v119.54" fill="none" stroke="#00f" stroke-linecap="square" id="line2d_17"/><path clip-path="url(#pb6c46263ec)" d="M257.474 283.31v34.057" fill="none" stroke="#00f" stroke-dasharray="6,6" id="line2d_18"/><path clip-path="url(#pb6c46263ec)" d="M257.474 163.771V53.85" fill="none" stroke="#00f" stroke-dasharray="6,6" id="line2d_19"/><path clip-path="url(#pb6c46263ec)" d="M248.155 317.367h18.638" fill="none" stroke="#000" stroke-linecap="square" id="line2d_20"/><path clip-path="url(#pb6c46263ec)" d="M248.155 53.85h18.638" fill="none" stroke="#000" stroke-linecap="square" id="line2d_21"/><path clip-path="url(#pb6c46263ec)" d="M238.836 221.795h37.276" fill="none" stroke="red" stroke-linecap="square" id="line2d_22"/><g clip-path="url(#pb6c46263ec)" id="line2d_23"><use x="257.474" xlink:href="#md5ea082d96" y="215.969" fill="red" stroke="#000" stroke-width=".5"/></g><path clip-path="url(#pb6c46263ec)" d="M313.387 359.717h37.275v-60.643h-37.275v60.643" fill="none" stroke="#00f" stroke-linecap="square" id="line2d_25"/><path clip-path="url(#pb6c46263ec)" d="M332.024 359.717v21.98" fill="none" stroke="#00f" stroke-dasharray="6,6" id="line2d_26"/><path clip-path="url(#pb6c46263ec)" d="M332.024 299.074v-88.866" fill="none" stroke="#00f" stroke-dasharray="6,6" id="line2d_27"/><path clip-path="url(#pb6c46263ec)" d="M322.705 381.697h18.638" fill="none" stroke="#000" stroke-linecap="square" id="line2d_28"/><path clip-path="url(#pb6c46263ec)" d="M322.705 210.208h18.638" fill="none" stroke="#000" stroke-linecap="square" id="line2d_29"/><path clip-path="url(#pb6c46263ec)" d="M313.387 334.102h37.275" fill="none" stroke="red" stroke-linecap="square" id="line2d_30"/><g clip-path="url(#pb6c46263ec)" id="line2d_31"><use x="332.024" xlink:href="#md5ea082d96" y="317.506" fill="red" stroke="#000" stroke-width=".5"/></g><g clip-path="url(#pb6c46263ec)" fill="#00f" stroke="#000" stroke-width=".5" id="line2d_32"><use x="332.024" xlink:href="#m36fe7b8114" y="200.716"/><use x="332.024" xlink:href="#m36fe7b8114" y="182.206"/><use x="332.024" xlink:href="#m36fe7b8114" y="103.944"/><use x="332.024" xlink:href="#m36fe7b8114" y="202.593"/><use x="332.024" xlink:href="#m36fe7b8114" y="165.24"/><use x="332.024" xlink:href="#m36fe7b8114" y="74.734"/><use x="332.024" xlink:href="#m36fe7b8114" y="168.757"/><use x="332.024" xlink:href="#m36fe7b8114" y="191.104"/><use x="332.024" xlink:href="#m36fe7b8114" y="205.964"/><use x="332.024" xlink:href="#m36fe7b8114" y="204.234"/><use x="332.024" xlink:href="#m36fe7b8114" y="203.61"/><use x="332.024" xlink:href="#m36fe7b8114" y="207.326"/><use x="332.024" xlink:href="#m36fe7b8114" y="205.054"/></g><path clip-path="url(#pb6c46263ec)" d="M387.937 379.905h37.275v-88.211h-37.275v88.21" fill="none" stroke="#00f" stroke-linecap="square" id="line2d_33"/><path clip-path="url(#pb6c46263ec)" d="M406.575 379.905v5.93" fill="none" stroke="#00f" stroke-dasharray="6,6" id="line2d_34"/><path clip-path="url(#pb6c46263ec)" d="M406.575 291.694v-45.218" fill="none" stroke="#00f" stroke-dasharray="6,6" id="line2d_35"/><path clip-path="url(#pb6c46263ec)" d="M397.256 385.835h18.637" fill="none" stroke="#000" stroke-linecap="square" id="line2d_36"/><path clip-path="url(#pb6c46263ec)" d="M397.256 246.476h18.637" fill="none" stroke="#000" stroke-linecap="square" id="line2d_37"/><path clip-path="url(#pb6c46263ec)" d="M387.937 347.289h37.275" fill="none" stroke="red" stroke-linecap="square" id="line2d_38"/><g clip-path="url(#pb6c46263ec)" id="line2d_39"><use x="406.575" xlink:href="#md5ea082d96" y="331.603" fill="red" stroke="#000" stroke-width=".5"/></g><path clip-path="url(#pb6c46263ec)" d="M462.487 353.516h37.275v-9.489h-37.275v9.489" fill="none" stroke="#00f" stroke-linecap="square" id="line2d_41"/><path clip-path="url(#pb6c46263ec)" d="M481.125 353.516v12.156" fill="none" stroke="#00f" stroke-dasharray="6,6" id="line2d_42"/><path clip-path="url(#pb6c46263ec)" d="M481.125 344.027v-14.232" fill="none" stroke="#00f" stroke-dasharray="6,6" id="line2d_43"/><path clip-path="url(#pb6c46263ec)" d="M471.806 365.672h18.638" fill="none" stroke="#000" stroke-linecap="square" id="line2d_44"/><path clip-path="url(#pb6c46263ec)" d="M471.806 329.795h18.638" fill="none" stroke="#000" stroke-linecap="square" id="line2d_45"/><path clip-path="url(#pb6c46263ec)" d="M462.487 350.254h37.275" fill="none" stroke="red" stroke-linecap="square" id="line2d_46"/><g clip-path="url(#pb6c46263ec)" id="line2d_47"><use x="481.125" xlink:href="#md5ea082d96" y="339.845" fill="red" stroke="#000" stroke-width=".5"/></g><g clip-path="url(#pb6c46263ec)" fill="#00f" stroke="#000" stroke-width=".5" id="line2d_48"><use x="481.125" xlink:href="#m36fe7b8114" y="387.317"/><use x="481.125" xlink:href="#m36fe7b8114" y="387.317"/><use x="481.125" xlink:href="#m36fe7b8114" y="387.317"/><use x="481.125" xlink:href="#m36fe7b8114" y="385.835"/><use x="481.125" xlink:href="#m36fe7b8114" y="383.759"/><use x="481.125" xlink:href="#m36fe7b8114" y="381.98"/><use x="481.125" xlink:href="#m36fe7b8114" y="372.196"/><use x="481.125" xlink:href="#m36fe7b8114" y="374.864"/><use x="481.125" xlink:href="#m36fe7b8114" y="373.678"/><use x="481.125" xlink:href="#m36fe7b8114" y="374.568"/><use x="481.125" xlink:href="#m36fe7b8114" y="387.021"/><use x="481.125" xlink:href="#m36fe7b8114" y="387.021"/><use x="481.125" xlink:href="#m36fe7b8114" y="387.317"/><use x="481.125" xlink:href="#m36fe7b8114" y="385.835"/><use x="481.125" xlink:href="#m36fe7b8114" y="383.759"/><use x="481.125" xlink:href="#m36fe7b8114" y="380.201"/><use x="481.125" xlink:href="#m36fe7b8114" y="378.126"/><use x="481.125" xlink:href="#m36fe7b8114" y="374.864"/><use x="481.125" xlink:href="#m36fe7b8114" y="375.754"/><use x="481.125" xlink:href="#m36fe7b8114" y="373.975"/><use x="481.125" xlink:href="#m36fe7b8114" y="387.021"/><use x="481.125" xlink:href="#m36fe7b8114" y="387.021"/><use x="481.125" xlink:href="#m36fe7b8114" y="387.614"/><use x="481.125" xlink:href="#m36fe7b8114" y="385.835"/><use x="481.125" xlink:href="#m36fe7b8114" y="383.759"/><use x="481.125" xlink:href="#m36fe7b8114" y="380.498"/><use x="481.125" xlink:href="#m36fe7b8114" y="378.719"/><use x="481.125" xlink:href="#m36fe7b8114" y="370.713"/><use x="481.125" xlink:href="#m36fe7b8114" y="369.527"/><use x="481.125" xlink:href="#m36fe7b8114" y="373.382"/><use x="481.125" xlink:href="#m36fe7b8114" y="386.131"/><use x="481.125" xlink:href="#m36fe7b8114" y="387.021"/><use x="481.125" xlink:href="#m36fe7b8114" y="387.317"/><use x="481.125" xlink:href="#m36fe7b8114" y="385.538"/><use x="481.125" xlink:href="#m36fe7b8114" y="382.573"/><use x="481.125" xlink:href="#m36fe7b8114" y="381.091"/><use x="481.125" xlink:href="#m36fe7b8114" y="378.126"/><use x="481.125" xlink:href="#m36fe7b8114" y="373.085"/><use x="481.125" xlink:href="#m36fe7b8114" y="373.975"/><use x="481.125" xlink:href="#m36fe7b8114" y="373.678"/><use x="481.125" xlink:href="#m36fe7b8114" y="387.317"/><use x="481.125" xlink:href="#m36fe7b8114" y="386.131"/><use x="481.125" xlink:href="#m36fe7b8114" y="387.614"/><use x="481.125" xlink:href="#m36fe7b8114" y="385.538"/><use x="481.125" xlink:href="#m36fe7b8114" y="383.759"/><use x="481.125" xlink:href="#m36fe7b8114" y="381.387"/><use x="481.125" xlink:href="#m36fe7b8114" y="370.713"/><use x="481.125" xlink:href="#m36fe7b8114" y="373.678"/><use x="481.125" xlink:href="#m36fe7b8114" y="375.457"/><use x="481.125" xlink:href="#m36fe7b8114" y="371.899"/><use x="481.125" xlink:href="#m36fe7b8114" y="282.65"/><use x="481.125" xlink:href="#m36fe7b8114" y="297.476"/><use x="481.125" xlink:href="#m36fe7b8114" y="310.522"/><use x="481.125" xlink:href="#m36fe7b8114" y="324.161"/><use x="481.125" xlink:href="#m36fe7b8114" y="324.754"/><use x="481.125" xlink:href="#m36fe7b8114" y="318.824"/><use x="481.125" xlink:href="#m36fe7b8114" y="310.522"/><use x="481.125" xlink:href="#m36fe7b8114" y="309.632"/><use x="481.125" xlink:href="#m36fe7b8114" y="314.08"/><use x="481.125" xlink:href="#m36fe7b8114" y="285.615"/><use x="481.125" xlink:href="#m36fe7b8114" y="319.714"/><use x="481.125" xlink:href="#m36fe7b8114" y="327.126"/><use x="481.125" xlink:href="#m36fe7b8114" y="325.644"/><use x="481.125" xlink:href="#m36fe7b8114" y="329.202"/><use x="481.125" xlink:href="#m36fe7b8114" y="326.533"/><use x="481.125" xlink:href="#m36fe7b8114" y="326.533"/><use x="481.125" xlink:href="#m36fe7b8114" y="327.719"/><use x="481.125" xlink:href="#m36fe7b8114" y="183.32"/><use x="481.125" xlink:href="#m36fe7b8114" y="3.636"/><use x="481.125" xlink:href="#m36fe7b8114" y="-1"/><use x="481.125" xlink:href="#m36fe7b8114" y="-1"/><use x="481.125" xlink:href="#m36fe7b8114" y="1.264"/><use x="481.125" xlink:href="#m36fe7b8114" y="283.836"/><use x="481.125" xlink:href="#m36fe7b8114" y="320.603"/><use x="481.125" xlink:href="#m36fe7b8114" y="291.842"/><use x="481.125" xlink:href="#m36fe7b8114" y="327.719"/><use x="481.125" xlink:href="#m36fe7b8114" y="326.533"/><use x="481.125" xlink:href="#m36fe7b8114" y="325.051"/><use x="481.125" xlink:href="#m36fe7b8114" y="327.719"/><use x="481.125" xlink:href="#m36fe7b8114" y="322.975"/><use x="481.125" xlink:href="#m36fe7b8114" y="321.196"/><use x="481.125" xlink:href="#m36fe7b8114" y="306.667"/><use x="481.125" xlink:href="#m36fe7b8114" y="289.766"/><use x="481.125" xlink:href="#m36fe7b8114" y="312.004"/><use x="481.125" xlink:href="#m36fe7b8114" y="327.719"/><use x="481.125" xlink:href="#m36fe7b8114" y="324.754"/><use x="481.125" xlink:href="#m36fe7b8114" y="324.458"/><use x="481.125" xlink:href="#m36fe7b8114" y="328.905"/><use x="481.125" xlink:href="#m36fe7b8114" y="181.838"/><use x="481.125" xlink:href="#m36fe7b8114" y="21.13"/><use x="481.125" xlink:href="#m36fe7b8114" y="-1"/><use x="481.125" xlink:href="#m36fe7b8114" y="-1"/><use x="481.125" xlink:href="#m36fe7b8114" y=".078"/><use x="481.125" xlink:href="#m36fe7b8114" y="276.127"/><use x="481.125" xlink:href="#m36fe7b8114" y="317.638"/><use x="481.125" xlink:href="#m36fe7b8114" y="295.4"/><use x="481.125" xlink:href="#m36fe7b8114" y="322.975"/><use x="481.125" xlink:href="#m36fe7b8114" y="325.051"/><use x="481.125" xlink:href="#m36fe7b8114" y="327.719"/><use x="481.125" xlink:href="#m36fe7b8114" y="314.97"/><use x="481.125" xlink:href="#m36fe7b8114" y="322.679"/><use x="481.125" xlink:href="#m36fe7b8114" y="317.935"/><use x="481.125" xlink:href="#m36fe7b8114" y="308.446"/><use x="481.125" xlink:href="#m36fe7b8114" y="305.778"/><use x="481.125" xlink:href="#m36fe7b8114" y="288.284"/><use x="481.125" xlink:href="#m36fe7b8114" y="317.638"/><use x="481.125" xlink:href="#m36fe7b8114" y="329.498"/><use x="481.125" xlink:href="#m36fe7b8114" y="329.498"/><use x="481.125" xlink:href="#m36fe7b8114" y="315.859"/><use x="481.125" xlink:href="#m36fe7b8114" y="328.609"/><use x="481.125" xlink:href="#m36fe7b8114" y="325.94"/><use x="481.125" xlink:href="#m36fe7b8114" y="323.568"/><use x="481.125" xlink:href="#m36fe7b8114" y="179.762"/><use x="481.125" xlink:href="#m36fe7b8114" y="-1"/><use x="481.125" xlink:href="#m36fe7b8114" y="-1"/><use x="481.125" xlink:href="#m36fe7b8114" y="279.092"/><use x="481.125" xlink:href="#m36fe7b8114" y="321.196"/><use x="481.125" xlink:href="#m36fe7b8114" y="281.761"/><use x="481.125" xlink:href="#m36fe7b8114" y="328.016"/><use x="481.125" xlink:href="#m36fe7b8114" y="325.051"/><use x="481.125" xlink:href="#m36fe7b8114" y="320.307"/><use x="481.125" xlink:href="#m36fe7b8114" y="320.9"/><use x="481.125" xlink:href="#m36fe7b8114" y="317.045"/><use x="481.125" xlink:href="#m36fe7b8114" y="304.888"/><use x="481.125" xlink:href="#m36fe7b8114" y="304.592"/><use x="481.125" xlink:href="#m36fe7b8114" y="304.295"/><use x="481.125" xlink:href="#m36fe7b8114" y="305.778"/><use x="481.125" xlink:href="#m36fe7b8114" y="271.976"/><use x="481.125" xlink:href="#m36fe7b8114" y="310.818"/><use x="481.125" xlink:href="#m36fe7b8114" y="320.9"/><use x="481.125" xlink:href="#m36fe7b8114" y="309.336"/><use x="481.125" xlink:href="#m36fe7b8114" y="317.935"/><use x="481.125" xlink:href="#m36fe7b8114" y="308.15"/><use x="481.125" xlink:href="#m36fe7b8114" y="301.33"/><use x="481.125" xlink:href="#m36fe7b8114" y="322.975"/><use x="481.125" xlink:href="#m36fe7b8114" y="329.498"/><use x="481.125" xlink:href="#m36fe7b8114" y="329.498"/><use x="481.125" xlink:href="#m36fe7b8114" y="191.919"/><use x="481.125" xlink:href="#m36fe7b8114" y=".968"/><use x="481.125" xlink:href="#m36fe7b8114" y="15.2"/><use x="481.125" xlink:href="#m36fe7b8114" y="-1"/><use x="481.125" xlink:href="#m36fe7b8114" y="-1"/><use x="481.125" xlink:href="#m36fe7b8114" y="277.906"/><use x="481.125" xlink:href="#m36fe7b8114" y="293.028"/><use x="481.125" xlink:href="#m36fe7b8114" y="329.498"/><use x="481.125" xlink:href="#m36fe7b8114" y="318.528"/><use x="481.125" xlink:href="#m36fe7b8114" y="325.051"/><use x="481.125" xlink:href="#m36fe7b8114" y="314.08"/><use x="481.125" xlink:href="#m36fe7b8114" y="315.266"/><use x="481.125" xlink:href="#m36fe7b8114" y="322.975"/><use x="481.125" xlink:href="#m36fe7b8114" y="312.597"/><use x="481.125" xlink:href="#m36fe7b8114" y="307.853"/><use x="481.125" xlink:href="#m36fe7b8114" y="287.691"/><use x="481.125" xlink:href="#m36fe7b8114" y="325.644"/><use x="481.125" xlink:href="#m36fe7b8114" y="313.784"/><use x="481.125" xlink:href="#m36fe7b8114" y="320.603"/><use x="481.125" xlink:href="#m36fe7b8114" y="326.533"/><use x="481.125" xlink:href="#m36fe7b8114" y="325.644"/><use x="481.125" xlink:href="#m36fe7b8114" y="306.964"/><use x="481.125" xlink:href="#m36fe7b8114" y="314.673"/><use x="481.125" xlink:href="#m36fe7b8114" y="177.093"/><use x="481.125" xlink:href="#m36fe7b8114" y="315.266"/><use x="481.125" xlink:href="#m36fe7b8114" y="204.965"/><use x="481.125" xlink:href="#m36fe7b8114" y="-1"/><use x="481.125" xlink:href="#m36fe7b8114" y="-1"/><use x="481.125" xlink:href="#m36fe7b8114" y="323.865"/><use x="481.125" xlink:href="#m36fe7b8114" y="-1"/></g><path d="M72 43.2h446.4" fill="none" stroke="#000" stroke-linecap="square" id="patch_3"/><path d="M518.4 388.8V43.2" fill="none" stroke="#000" stroke-linecap="square" id="patch_4"/><path d="M72 388.8h446.4" fill="none" stroke="#000" stroke-linecap="square" id="patch_5"/><path d="M72 388.8V43.2" fill="none" stroke="#000" stroke-linecap="square" id="patch_6"/><g id="matplotlib.axis_1"><g id="xtick_1"><g id="line2d_49"><defs><path d="M0 0v-4" id="mb6a154a245" stroke="#000" stroke-width=".5"/></defs><use x="108.373" xlink:href="#mb6a154a245" y="388.8" stroke="#000" stroke-width=".5"/></g><g id="line2d_50"><defs><path d="M0 0v4" id="m91fb08f667" stroke="#000" stroke-width=".5"/></defs><use x="108.373" xlink:href="#m91fb08f667" y="43.2" stroke="#000" stroke-width=".5"/></g><g id="text_1"><defs><path d="M56.203 29.594v-4.39H14.891q.593-9.282 5.593-14.142 5-4.859 13.938-4.859 5.172 0 10.031 1.266 4.86 1.265 9.656 3.812v-8.5Q49.266.734 44.187-.344 39.11-1.422 33.892-1.422q-13.094 0-20.735 7.61-7.64 7.625-7.64 20.625 0 13.421 7.25 21.296Q20.016 56 32.328 56q11.031 0 17.453-7.11 6.422-7.093 6.422-19.296m-8.984 2.64q-.094 7.36-4.125 11.75-4.032 4.407-10.672 4.407-7.516 0-12.031-4.25-4.516-4.25-5.203-11.97z" id="BitstreamVeraSans-Roman-65"/><path d="M45.406 46.39v29.594h8.985V0h-8.985v8.203Q42.578 3.328 38.25.953q-4.313-2.375-10.375-2.375-9.906 0-16.14 7.906-6.22 7.922-6.22 20.813 0 12.89 6.22 20.797Q17.968 56 27.874 56q6.063 0 10.375-2.375 4.328-2.36 7.156-7.234m-30.61-19.094q0-9.906 4.079-15.547 4.078-5.64 11.203-5.64 7.125 0 11.219 5.64 4.11 5.64 4.11 15.547 0 9.906-4.11 15.547-4.094 5.64-11.219 5.64-7.125 0-11.203-5.64-4.078-5.64-4.078-15.547" id="BitstreamVeraSans-Roman-64"/><path d="M9.813 72.906h13.28l32.329-60.984v60.984h9.562V0h-13.28L19.39 60.984V0H9.813z" id="BitstreamVeraSans-Roman-4e"/><path d="M30.61 48.39q-7.22 0-11.422-5.64-4.204-5.64-4.204-15.453 0-9.813 4.172-15.453 4.188-5.64 11.453-5.64 7.188 0 11.375 5.655 4.203 5.672 4.203 15.438 0 9.719-4.203 15.406-4.187 5.688-11.375 5.688m0 7.609q11.72 0 18.407-7.625 6.703-7.61 6.703-21.078 0-13.422-6.703-21.078-6.688-7.64-18.407-7.64-11.765 0-18.437 7.64-6.656 7.656-6.656 21.078 0 13.469 6.656 21.078Q18.844 56 30.609 56" id="BitstreamVeraSans-Roman-6f"/></defs><g transform="matrix(.12 0 0 -.12 92.712 401.918)"><use xlink:href="#BitstreamVeraSans-Roman-4e"/><use x="74.805" xlink:href="#BitstreamVeraSans-Roman-6f"/><use x="135.986" xlink:href="#BitstreamVeraSans-Roman-64"/><use x="199.463" xlink:href="#BitstreamVeraSans-Roman-65"/></g></g></g><g id="xtick_2"><use x="182.924" xlink:href="#mb6a154a245" y="388.8" stroke="#000" stroke-width=".5" id="line2d_51"/><use x="182.924" xlink:href="#m91fb08f667" y="43.2" stroke="#000" stroke-width=".5" id="line2d_52"/><g id="text_2"><defs><path d="M12.406 8.297h16.11v55.625l-17.532-3.516v8.985l17.438 3.515h9.86V8.296H54.39V0H12.406z" id="BitstreamVeraSans-Roman-31"/><path d="M9.813 72.906h9.859V5.078q0-13.187-5-19.14-5-5.954-16.094-5.954h-3.75v8.297h3.078q6.531 0 9.219 3.672Q9.813-4.39 9.813 5.078z" id="BitstreamVeraSans-Roman-4a"/><path d="M59.516 10.406v19.578h-16.11v8.11h25.875V6.78Q63.578 2.734 56.687.656 49.813-1.422 42-1.422q-17.094 0-26.75 9.985-9.64 10-9.64 27.812 0 17.875 9.64 27.86 9.656 9.984 26.75 9.984 7.125 0 13.547-1.766 6.422-1.75 11.844-5.172v-10.5q-5.47 4.64-11.625 6.985-6.157 2.343-12.938 2.343-13.39 0-20.11-7.468-6.702-7.47-6.702-22.266 0-14.75 6.703-22.219 6.718-7.469 20.11-7.469 5.218 0 9.312.907 4.109.906 7.375 2.812" id="BitstreamVeraSans-Roman-47"/><path d="M2.984 54.688H12.5L29.594 8.797l17.093 45.89h9.516L35.687 0H23.485z" id="BitstreamVeraSans-Roman-76"/><path d="M34.281 27.484q-10.89 0-15.093-2.484-4.204-2.484-4.204-8.5 0-4.781 3.157-7.594 3.156-2.797 8.562-2.797 7.485 0 12 5.297 4.516 5.297 4.516 14.078v2zm17.922 3.72V0H43.22v8.297Q40.14 3.328 35.547.953q-4.594-2.375-11.234-2.375-8.391 0-13.36 4.719Q6 8.016 6 15.922q0 9.219 6.172 13.906 6.187 4.688 18.437 4.688h12.61v.89q0 6.203-4.078 9.594-4.078 3.39-11.453 3.39-4.688 0-9.141-1.124-4.438-1.125-8.531-3.375v8.312q4.921 1.906 9.562 2.844 4.64.953 9.031.953 11.875 0 17.735-6.156 5.86-6.14 5.86-18.64" id="BitstreamVeraSans-Roman-61"/></defs><g transform="matrix(.12 0 0 -.12 159.875 401.918)"><use xlink:href="#BitstreamVeraSans-Roman-4a"/><use x="29.492" xlink:href="#BitstreamVeraSans-Roman-61"/><use x="90.771" xlink:href="#BitstreamVeraSans-Roman-76"/><use x="149.951" xlink:href="#BitstreamVeraSans-Roman-61"/><use x="211.23" xlink:href="#BitstreamVeraSans-Roman-20"/><use x="243.018" xlink:href="#BitstreamVeraSans-Roman-47"/><use x="320.508" xlink:href="#BitstreamVeraSans-Roman-31"/></g></g></g><g id="xtick_3"><use x="257.474" xlink:href="#mb6a154a245" y="388.8" stroke="#000" stroke-width=".5" id="line2d_53"/><use x="257.474" xlink:href="#m91fb08f667" y="43.2" stroke="#000" stroke-width=".5" id="line2d_54"/><g transform="matrix(.12 0 0 -.12 244.799 401.918)" id="text_3"><use xlink:href="#BitstreamVeraSans-Roman-4a"/><use x="29.492" xlink:href="#BitstreamVeraSans-Roman-61"/><use x="90.771" xlink:href="#BitstreamVeraSans-Roman-76"/><use x="149.951" xlink:href="#BitstreamVeraSans-Roman-61"/></g></g><g id="xtick_4"><use x="332.024" xlink:href="#mb6a154a245" y="388.8" stroke="#000" stroke-width=".5" id="line2d_55"/><use x="332.024" xlink:href="#m91fb08f667" y="43.2" stroke="#000" stroke-width=".5" id="line2d_56"/><g id="text_4"><defs><path d="M53.516 70.516V60.89q-5.61 2.687-10.594 4-4.984 1.328-9.625 1.328-8.047 0-12.422-3.125t-4.375-8.89q0-4.845 2.906-7.313 2.907-2.453 11.016-3.97l5.953-1.218q11.031-2.11 16.281-7.406 5.25-5.297 5.25-14.172 0-10.61-7.11-16.078-7.093-5.469-20.812-5.469-5.172 0-11.015 1.172Q13.14.922 6.89 3.219v10.156q6-3.36 11.765-5.078 5.766-1.703 11.328-1.703 8.438 0 13.032 3.312 4.593 3.328 4.593 9.485 0 5.359-3.297 8.39-3.296 3.032-10.812 4.547L27.484 33.5q-11.03 2.188-15.968 6.875-4.922 4.688-4.922 13.047 0 9.672 6.812 15.234 6.813 5.563 18.766 5.563 5.14 0 10.453-.938 5.328-.922 10.89-2.765" id="BitstreamVeraSans-Roman-53"/><path d="M9.422 75.984h8.984V0H9.422z" id="BitstreamVeraSans-Roman-6c"/><path d="M48.781 52.594v-8.407q-3.812 2.11-7.64 3.157-3.828 1.047-7.735 1.047-8.75 0-13.593-5.547-4.829-5.532-4.829-15.547 0-10.016 4.829-15.563 4.843-5.53 13.593-5.53 3.907 0 7.735 1.046 3.828 1.047 7.64 3.156V2.094Q45.016.344 40.984-.531q-4.015-.89-8.562-.89-12.36 0-19.64 7.765-7.266 7.765-7.266 20.953 0 13.375 7.343 21.031Q20.22 56 33.016 56q4.14 0 8.093-.86 3.953-.843 7.672-2.546" id="BitstreamVeraSans-Roman-63"/></defs><g transform="matrix(.12 0 0 -.12 315.895 401.918)"><use xlink:href="#BitstreamVeraSans-Roman-53"/><use x="63.477" xlink:href="#BitstreamVeraSans-Roman-63"/><use x="118.457" xlink:href="#BitstreamVeraSans-Roman-61"/><use x="179.736" xlink:href="#BitstreamVeraSans-Roman-6c"/><use x="207.52" xlink:href="#BitstreamVeraSans-Roman-61"/></g></g></g><g id="xtick_5"><use x="406.575" xlink:href="#mb6a154a245" y="388.8" stroke="#000" stroke-width=".5" id="line2d_57"/><use x="406.575" xlink:href="#m91fb08f667" y="43.2" stroke="#000" stroke-width=".5" id="line2d_58"/><g id="text_5"><defs><path d="M9.078 75.984h9.031V31.11l26.813 23.578H56.39l-29-25.578L57.625 0H45.906L18.11 26.703V0H9.08z" id="BitstreamVeraSans-Roman-6b"/><path d="M44.281 53.078v-8.5q-3.797 1.953-7.906 2.922-4.094.984-8.5.984-6.688 0-10.031-2.047-3.344-2.046-3.344-6.156 0-3.125 2.39-4.906 2.391-1.781 9.626-3.39l3.078-.688q9.562-2.047 13.593-5.781 4.032-3.735 4.032-10.422 0-7.625-6.032-12.078-6.03-4.438-16.578-4.438-4.39 0-9.156.86Q10.688.296 5.422 2v9.281q4.984-2.594 9.812-3.89 4.829-1.282 9.579-1.282 6.343 0 9.75 2.172 3.421 2.172 3.421 6.125 0 3.656-2.468 5.61-2.453 1.953-10.813 3.765l-3.125.735q-8.344 1.75-12.062 5.39-3.704 3.64-3.704 9.985 0 7.718 5.47 11.906Q16.75 56 26.811 56q4.97 0 9.36-.734 4.406-.72 8.11-2.188" id="BitstreamVeraSans-Roman-73"/><path d="M9.813 72.906h9.859v-29.89h35.844v29.89h9.859V0h-9.86v34.719H19.673V0h-9.86z" id="BitstreamVeraSans-Roman-48"/></defs><g transform="matrix(.12 0 0 -.12 384.763 401.918)"><use xlink:href="#BitstreamVeraSans-Roman-48"/><use x="75.195" xlink:href="#BitstreamVeraSans-Roman-61"/><use x="136.475" xlink:href="#BitstreamVeraSans-Roman-73"/><use x="188.574" xlink:href="#BitstreamVeraSans-Roman-6b"/><use x="246.438" xlink:href="#BitstreamVeraSans-Roman-65"/><use x="307.961" xlink:href="#BitstreamVeraSans-Roman-6c"/><use x="335.744" xlink:href="#BitstreamVeraSans-Roman-6c"/></g></g></g><g id="xtick_6"><use x="481.125" xlink:href="#mb6a154a245" y="388.8" stroke="#000" stroke-width=".5" id="line2d_59"/><use x="481.125" xlink:href="#m91fb08f667" y="43.2" stroke="#000" stroke-width=".5" id="line2d_60"/><g id="text_6"><defs><path d="M52 44.188q3.375 6.062 8.063 8.937Q64.75 56 71.093 56q8.548 0 13.188-5.984 4.64-5.97 4.64-17V0h-9.03v32.719q0 7.86-2.797 11.656-2.781 3.813-8.485 3.813-6.984 0-11.046-4.641-4.047-4.625-4.047-12.64V0h-9.032v32.719q0 7.906-2.78 11.687-2.782 3.782-8.595 3.782-6.89 0-10.953-4.657-4.047-4.656-4.047-12.625V0H9.08v54.688h9.03v-8.5q3.078 5.03 7.375 7.421Q29.781 56 35.687 56q5.97 0 10.141-3.031Q50 49.953 52 44.187" id="BitstreamVeraSans-Roman-6d"/><path d="M9.422 54.688h8.984V0H9.422zm0 21.296h8.984v-11.39H9.422z" id="BitstreamVeraSans-Roman-69"/></defs><g transform="matrix(.12 0 0 -.12 450.201 401.918)"><use xlink:href="#BitstreamVeraSans-Roman-4e"/><use x="74.805" xlink:href="#BitstreamVeraSans-Roman-6f"/><use x="135.986" xlink:href="#BitstreamVeraSans-Roman-64"/><use x="199.463" xlink:href="#BitstreamVeraSans-Roman-65"/><use x="260.986" xlink:href="#BitstreamVeraSans-Roman-20"/><use x="292.773" xlink:href="#BitstreamVeraSans-Roman-69"/><use x="320.557" xlink:href="#BitstreamVeraSans-Roman-6d"/><use x="417.969" xlink:href="#BitstreamVeraSans-Roman-6d"/></g></g></g></g><g id="matplotlib.axis_2"><g id="ytick_1"><g id="line2d_61"><defs><path d="M0 0h4" id="m77f1eb048f" stroke="#000" stroke-width=".5"/></defs><use x="72" xlink:href="#m77f1eb048f" y="388.8" stroke="#000" stroke-width=".5"/></g><g id="line2d_62"><defs><path d="M0 0h-4" id="m4ac6f51f54" stroke="#000" stroke-width=".5"/></defs><use x="518.4" xlink:href="#m4ac6f51f54" y="388.8" stroke="#000" stroke-width=".5"/></g><g id="text_7"><defs><path d="M31.781 66.406q-7.61 0-11.453-7.5Q16.5 51.422 16.5 36.375q0-14.984 3.828-22.484 3.844-7.5 11.453-7.5 7.672 0 11.5 7.5 3.844 7.5 3.844 22.484 0 15.047-3.844 22.531-3.828 7.5-11.5 7.5m0 7.813q12.266 0 18.735-9.703 6.468-9.688 6.468-28.141 0-18.406-6.468-28.11-6.47-9.687-18.735-9.687-12.25 0-18.718 9.688-6.47 9.703-6.47 28.109 0 18.453 6.47 28.14Q19.53 74.22 31.78 74.22" id="BitstreamVeraSans-Roman-30"/></defs><use xlink:href="#BitstreamVeraSans-Roman-30" transform="matrix(.12 0 0 -.12 60.365 392.111)"/></g></g><g id="ytick_2"><use x="72" xlink:href="#m77f1eb048f" y="329.498" stroke="#000" stroke-width=".5" id="line2d_63"/><use x="518.4" xlink:href="#m4ac6f51f54" y="329.498" stroke="#000" stroke-width=".5" id="line2d_64"/><g id="text_8"><defs><path d="M19.188 8.297h34.421V0H7.33v8.297q5.609 5.812 15.296 15.594 9.703 9.797 12.188 12.64 4.734 5.313 6.609 9 1.89 3.688 1.89 7.25 0 5.813-4.078 9.469-4.078 3.672-10.625 3.672-4.64 0-9.797-1.61-5.14-1.609-11-4.89v9.969Q13.767 71.78 18.938 73q5.188 1.219 9.485 1.219 11.328 0 18.062-5.672 6.735-5.656 6.735-15.125 0-4.5-1.688-8.531-1.672-4.016-6.125-9.485-1.218-1.422-7.765-8.187-6.532-6.766-18.453-18.922" id="BitstreamVeraSans-Roman-32"/></defs><g transform="matrix(.12 0 0 -.12 52.73 332.81)"><use xlink:href="#BitstreamVeraSans-Roman-32"/><use x="63.623" xlink:href="#BitstreamVeraSans-Roman-30"/></g></g></g><g id="ytick_3"><use x="72" xlink:href="#m77f1eb048f" y="270.197" stroke="#000" stroke-width=".5" id="line2d_65"/><use x="518.4" xlink:href="#m4ac6f51f54" y="270.197" stroke="#000" stroke-width=".5" id="line2d_66"/><g id="text_9"><defs><path d="M37.797 64.313L12.89 25.39h24.906zm-2.594 8.593H47.61V25.391h10.407v-8.203H47.609V0h-9.812v17.188H4.89v9.515z" id="BitstreamVeraSans-Roman-34"/></defs><g transform="matrix(.12 0 0 -.12 52.73 273.508)"><use xlink:href="#BitstreamVeraSans-Roman-34"/><use x="63.623" xlink:href="#BitstreamVeraSans-Roman-30"/></g></g></g><g id="ytick_4"><use x="72" xlink:href="#m77f1eb048f" y="210.895" stroke="#000" stroke-width=".5" id="line2d_67"/><use x="518.4" xlink:href="#m4ac6f51f54" y="210.895" stroke="#000" stroke-width=".5" id="line2d_68"/><g id="text_10"><defs><path d="M33.016 40.375q-6.641 0-10.532-4.547-3.875-4.531-3.875-12.437 0-7.86 3.875-12.438 3.891-4.562 10.532-4.562 6.64 0 10.515 4.562 3.875 4.578 3.875 12.438 0 7.906-3.875 12.437-3.875 4.547-10.515 4.547m19.578 30.922v-8.984q-3.719 1.75-7.5 2.671-3.782.938-7.5.938-9.766 0-14.922-6.594-5.14-6.594-5.875-19.922 2.875 4.25 7.219 6.516 4.359 2.266 9.578 2.266 10.984 0 17.36-6.672 6.374-6.657 6.374-18.125 0-11.235-6.64-18.032-6.641-6.78-17.672-6.78-12.657 0-19.344 9.687-6.688 9.703-6.688 28.109 0 17.281 8.204 27.563 8.203 10.28 22.015 10.28 3.719 0 7.5-.734t7.89-2.187" id="BitstreamVeraSans-Roman-36"/></defs><g transform="matrix(.12 0 0 -.12 52.73 214.207)"><use xlink:href="#BitstreamVeraSans-Roman-36"/><use x="63.623" xlink:href="#BitstreamVeraSans-Roman-30"/></g></g></g><g id="ytick_5"><use x="72" xlink:href="#m77f1eb048f" y="151.594" stroke="#000" stroke-width=".5" id="line2d_69"/><use x="518.4" xlink:href="#m4ac6f51f54" y="151.594" stroke="#000" stroke-width=".5" id="line2d_70"/><g id="text_11"><defs><path d="M31.781 34.625q-7.031 0-11.062-3.766-4.016-3.765-4.016-10.343 0-6.594 4.016-10.36Q24.75 6.391 31.78 6.391q7.032 0 11.078 3.78 4.063 3.798 4.063 10.345 0 6.578-4.031 10.343-4.016 3.766-11.11 3.766m-9.86 4.188q-6.343 1.562-9.89 5.906Q8.5 49.079 8.5 55.329q0 8.733 6.219 13.812 6.234 5.078 17.062 5.078 10.89 0 17.094-5.078 6.203-5.079 6.203-13.813 0-6.25-3.547-10.61-3.531-4.343-9.828-5.906 7.125-1.656 11.094-6.5 3.984-4.828 3.984-11.796 0-10.61-6.468-16.282-6.47-5.656-18.532-5.656-12.047 0-18.531 5.656-6.469 5.672-6.469 16.282 0 6.968 4 11.797 4.016 4.843 11.14 6.5M18.314 54.39q0-5.657 3.53-8.828 3.548-3.172 9.938-3.172 6.36 0 9.938 3.172 3.593 3.171 3.593 8.828 0 5.672-3.593 8.843-3.578 3.172-9.938 3.172-6.39 0-9.937-3.172-3.532-3.172-3.532-8.843" id="BitstreamVeraSans-Roman-38"/></defs><g transform="matrix(.12 0 0 -.12 52.73 154.905)"><use xlink:href="#BitstreamVeraSans-Roman-38"/><use x="63.623" xlink:href="#BitstreamVeraSans-Roman-30"/></g></g></g><g id="ytick_6"><use x="72" xlink:href="#m77f1eb048f" y="92.292" stroke="#000" stroke-width=".5" id="line2d_71"/><use x="518.4" xlink:href="#m4ac6f51f54" y="92.292" stroke="#000" stroke-width=".5" id="line2d_72"/><g transform="matrix(.12 0 0 -.12 45.095 95.603)" id="text_12"><use xlink:href="#BitstreamVeraSans-Roman-31"/><use x="63.623" xlink:href="#BitstreamVeraSans-Roman-30"/><use x="127.246" xlink:href="#BitstreamVeraSans-Roman-30"/></g></g></g></g></g><defs><clipPath id="pb6c46263ec"><path d="M72 43.2h446.4v345.6H72z"/></clipPath></defs></svg>